<svg width="32" height="32" viewBox="0 0 32 32" fill="none" xmlns="http://www.w3.org/2000/svg">
<g clip-path="url(#clip0_632_3598)">
<path d="M32 16C32 7.16344 24.8366 0 16 0C7.16344 0 0 7.16344 0 16C0 24.8366 7.16344 32 16 32C24.8366 32 32 24.8366 32 16Z" fill="url(#paint0_linear_632_3598)"/>
<path d="M16.4671 17.0379H15.5324C14.0448 17.0379 12.618 17.6287 11.5659 18.6804C10.5138 19.7322 9.92243 21.1587 9.92188 22.6463C9.92188 23.0053 10.0645 23.3497 10.3184 23.6035C10.5722 23.8574 10.9165 24 11.2756 24H20.724C20.9017 24 21.0778 23.965 21.242 23.897C21.4062 23.8289 21.5555 23.7292 21.6812 23.6035C21.8069 23.4778 21.9066 23.3286 21.9746 23.1643C22.0427 23.0001 22.0777 22.8241 22.0777 22.6463C22.0771 21.1587 21.4858 19.7322 20.4336 18.6804C19.3815 17.6287 17.9548 17.0379 16.4671 17.0379ZM12.3366 13.8L11.9471 12.4021C12.0075 12.3414 12.0527 12.2674 12.0794 12.186C12.1061 12.1047 12.1133 12.0182 12.1007 11.9336C12.088 11.8489 12.0557 11.7684 12.0064 11.6984C11.9571 11.6284 11.8921 11.5709 11.8166 11.5305V10.2147L13.6398 10.8905C13.2754 11.3396 13.0467 11.8834 12.9807 12.458C12.9147 13.0326 13.0141 13.614 13.2672 14.1341C13.5203 14.6541 13.9166 15.0911 14.4095 15.3936C14.9024 15.6962 15.4714 15.8518 16.0496 15.8421C16.6279 15.8324 17.1914 15.6579 17.6739 15.339C18.1564 15.0201 18.5378 14.5701 18.7733 14.0419C19.0089 13.5137 19.0887 12.9292 19.0035 12.3572C18.9183 11.7851 18.6716 11.2493 18.2924 10.8126L21.0082 9.76L15.9998 8L10.8503 9.85684L11.2945 10.0211V11.5305C11.2186 11.5704 11.153 11.6274 11.1031 11.6971C11.0531 11.7668 11.0202 11.8472 11.0069 11.9319C10.9936 12.0166 11.0003 12.1032 11.0265 12.1849C11.0527 12.2665 11.0976 12.3409 11.1577 12.4021L10.7703 13.8H12.3366Z" fill="white"/>
</g>
<defs>
<linearGradient id="paint0_linear_632_3598" x1="4.68632" y1="4.68632" x2="27.3137" y2="27.3137" gradientUnits="userSpaceOnUse">
<stop stop-color="#00BDE2"/>
<stop offset="1" stop-color="#001761"/>
</linearGradient>
<clipPath id="clip0_632_3598">
<rect width="32" height="32" fill="white"/>
</clipPath>
</defs>
</svg>
